<svg width="35" height="35" viewBox="0 0 35 35" fill="none" xmlns="http://www.w3.org/2000/svg">
<g id="ri:instagram-fill">
<path id="Vector" d="M18.9991 2.91805C20.0633 2.91397 21.1275 2.92467 22.1914 2.95014L22.4743 2.96035C22.801 2.97201 23.1233 2.9866 23.5127 3.0041C25.0643 3.07701 26.1231 3.32201 27.052 3.68222C28.0145 4.05264 28.8254 4.5543 29.6362 5.36514C30.3776 6.09373 30.9514 6.97506 31.3177 7.94785C31.6779 8.8768 31.9229 9.93701 31.9958 11.4887C32.0133 11.8766 32.0279 12.2003 32.0395 12.527L32.0483 12.8099C32.0742 13.8733 32.0854 14.937 32.0818 16.0008L32.0833 17.0887V18.9991C32.0869 20.0633 32.0757 21.1275 32.0497 22.1914L32.041 22.4743C32.0293 22.801 32.0147 23.1233 31.9972 23.5126C31.9243 25.0643 31.6764 26.1231 31.3177 27.052C30.9526 28.0258 30.3786 28.9079 29.6362 29.6362C28.907 30.3775 28.0252 30.9512 27.052 31.3176C26.1231 31.6778 25.0643 31.9228 23.5127 31.9958C23.1233 32.0133 22.801 32.0278 22.4743 32.0395L22.1914 32.0483C21.1275 32.0742 20.0633 32.0854 18.9991 32.0818L17.9112 32.0833H16.0022C14.938 32.0869 13.8738 32.0757 12.8099 32.0497L12.527 32.041C12.1808 32.0284 11.8347 32.0138 11.4887 31.9972C9.93703 31.9243 8.87828 31.6764 7.94786 31.3176C6.97469 30.9521 6.09321 30.3782 5.36515 29.6362C4.62293 28.9074 4.04861 28.0255 3.68224 27.052C3.32203 26.1231 3.07703 25.0643 3.00411 23.5126C2.98787 23.1666 2.97329 22.8205 2.96036 22.4743L2.95307 22.1914C2.92618 21.1275 2.91403 20.0633 2.91661 18.9991V16.0008C2.91254 14.9371 2.92324 13.8733 2.9487 12.8099L2.9589 12.527C2.97057 12.2003 2.98515 11.8766 3.00265 11.4887C3.07557 9.93555 3.32057 8.87826 3.68078 7.94785C4.04736 6.97458 4.62281 6.09349 5.36661 5.3666C6.09417 4.62394 6.9751 4.0491 7.94786 3.68222C8.87828 3.32201 9.93557 3.07701 11.4887 3.0041L12.527 2.96035L12.8099 2.95305C13.8733 2.92618 14.9371 2.91403 16.0008 2.9166L18.9991 2.91805ZM17.4999 10.2097C16.5338 10.1961 15.5746 10.3745 14.678 10.7348C13.7815 11.0951 12.9655 11.63 12.2774 12.3083C11.5894 12.9867 11.043 13.7951 10.6701 14.6865C10.2972 15.5778 10.1052 16.5344 10.1052 17.5007C10.1052 18.4669 10.2972 19.4235 10.6701 20.3149C11.043 21.2062 11.5894 22.0146 12.2774 22.693C12.9655 23.3714 13.7815 23.9062 14.678 24.2665C15.5746 24.6268 16.5338 24.8053 17.4999 24.7916C19.4338 24.7916 21.2885 24.0234 22.6559 22.6559C24.0234 21.2885 24.7916 19.4338 24.7916 17.4999C24.7916 15.5661 24.0234 13.7114 22.6559 12.3439C21.2885 10.9765 19.4338 10.2097 17.4999 10.2097ZM17.4999 13.1264C18.0811 13.1157 18.6586 13.2209 19.1986 13.4359C19.7386 13.6508 20.2304 13.9713 20.6452 14.3784C21.0601 14.7856 21.3896 15.2714 21.6146 15.8073C21.8395 16.3433 21.9554 16.9187 21.9555 17.4999C21.9556 18.0812 21.8399 18.6566 21.6151 19.1926C21.3903 19.7287 21.061 20.2145 20.6463 20.6218C20.2316 21.0291 19.7399 21.3497 19.2 21.5649C18.66 21.78 18.0826 21.8854 17.5014 21.8749C16.3411 21.8749 15.2283 21.414 14.4078 20.5935C13.5873 19.7731 13.1264 18.6603 13.1264 17.4999C13.1264 16.3396 13.5873 15.2268 14.4078 14.4063C15.2283 13.5859 16.3411 13.1249 17.5014 13.1249L17.4999 13.1264ZM25.1562 8.02222C24.6857 8.04105 24.2408 8.24119 23.9146 8.58072C23.5884 8.92025 23.4062 9.37283 23.4062 9.84368C23.4062 10.3145 23.5884 10.7671 23.9146 11.1066C24.2408 11.4462 24.6857 11.6463 25.1562 11.6651C25.6397 11.6651 26.1033 11.4731 26.4452 11.1312C26.7871 10.7894 26.9791 10.3257 26.9791 9.84222C26.9791 9.35875 26.7871 8.89509 26.4452 8.55322C26.1033 8.21136 25.6397 8.0193 25.1562 8.0193V8.02222Z" fill="#FF7DDF"/>
</g>
</svg>
